<?xml version="1.0" standalone="no"?>
<!DOCTYPE svg PUBLIC "-//W3C//DTD SVG 20010904//EN"
 "http://www.w3.org/TR/2001/REC-SVG-20010904/DTD/svg10.dtd">
<svg version="1.0" xmlns="http://www.w3.org/2000/svg"
 width="500.000000pt" height="500.000000pt" viewBox="0 0 500.000000 500.000000"
 preserveAspectRatio="xMidYMid meet">
<metadata>
Created by potrace 1.11, written by Peter Selinger 2001-2013
</metadata>
<g transform="translate(0.000000,500.000000) scale(0.100000,-0.100000)"
fill="#000000" stroke="none">
<path d="M0 2500 l0 -2500 2500 0 2500 0 0 2500 0 2500 -2500 0 -2500 0 0
-2500z m2830 2235 c684 -114 1255 -530 1565 -1140 306 -602 309 -1304 8 -1906
-373 -746 -1142 -1206 -1968 -1176 -555 21 -1039 231 -1430 622 -353 352 -564
797 -615 1294 -87 869 373 1705 1155 2099 246 125 493 196 780 226 84 9 413
-3 505 -19z"/>
<path d="M2155 4694 c-894 -154 -1587 -863 -1719 -1757 -23 -155 -21 -435 4
-605 66 -450 267 -851 590 -1172 314 -314 696 -512 1128 -584 281 -47 616 -32
882 40 433 117 818 371 1097 721 248 311 398 675 444 1078 15 125 6 426 -16
555 -149 891 -832 1574 -1723 1726 -202 34 -483 33 -687 -2z m-790 -920 c56
-28 88 -91 82 -160 -6 -58 -59 -181 -108 -249 -59 -82 -179 -139 -179 -86 0
13 11 23 35 31 46 15 127 106 165 185 80 167 31 265 -125 252 -169 -13 -389
-193 -499 -406 -85 -166 -108 -312 -61 -384 32 -50 73 -53 245 -18 180 36 233
38 277 11 48 -29 64 -61 64 -124 0 -31 4 -56 9 -56 4 0 74 35 154 78 129 69
149 83 177 125 40 61 87 86 130 70 35 -13 34 -14 89 75 22 34 44 62 50 62 25
0 20 -37 -18 -118 -82 -178 -123 -352 -81 -352 28 0 200 220 303 388 52 84 76
106 90 84 3 -5 -15 -55 -40 -111 -24 -57 -44 -108 -44 -113 0 -6 22 10 49 35
85 80 120 73 162 -31 28 -72 36 -82 64 -82 34 0 79 42 135 125 27 40 66 87 87
105 34 28 43 31 83 26 l46 -6 76 127 c42 71 94 164 116 209 46 91 68 116 79
89 3 -10 1 -30 -5 -44 -6 -14 -35 -84 -66 -156 -88 -207 -156 -459 -156 -575
0 -33 4 -39 31 -51 51 -21 73 -83 66 -188 -17 -253 -163 -543 -395 -783 -156
-162 -265 -195 -249 -77 12 87 142 234 340 383 64 48 127 100 140 116 41 48
117 288 117 366 0 16 -2 16 -15 -2 -15 -19 -16 -18 -40 9 -14 15 -28 46 -31
68 -4 22 -10 42 -15 45 -15 9 -98 -47 -160 -108 -109 -110 -248 -351 -414
-722 -40 -88 -79 -164 -87 -170 -30 -18 -48 0 -48 50 0 144 55 370 188 769 49
145 75 211 86 213 9 2 18 -3 21 -11 3 -7 -35 -139 -84 -293 -90 -282 -133
-438 -146 -529 -9 -70 4 -52 65 85 75 168 183 371 256 482 77 116 192 234 266
273 l54 28 12 101 c7 56 23 144 37 196 13 52 22 96 20 98 -1 2 -35 -41 -73
-96 -104 -145 -151 -181 -200 -151 -14 9 -27 5 -67 -20 -27 -17 -62 -31 -77
-31 -37 0 -72 37 -94 98 -29 79 -37 82 -85 37 -22 -22 -67 -79 -100 -127 -58
-84 -83 -104 -95 -74 -3 8 0 33 6 56 6 23 9 44 7 46 -3 3 -35 -32 -72 -76
-101 -121 -169 -159 -196 -108 -12 22 -7 135 7 188 6 20 -8 11 -64 -42 -38
-38 -79 -68 -90 -68 -28 0 -45 25 -40 59 l4 30 -125 -66 c-166 -87 -179 -98
-226 -183 -72 -132 -196 -257 -271 -276 -41 -10 -73 4 -90 40 -15 31 -15 36 1
70 26 54 139 153 254 221 112 67 131 91 131 169 0 36 -6 52 -25 71 -32 33 -66
32 -251 -6 -154 -32 -199 -32 -254 -4 -94 49 -104 229 -24 412 29 65 100 177
153 242 82 101 238 212 345 247 58 19 162 13 211 -12z m2509 -563 c3 -5 -12
-54 -34 -110 -69 -174 -199 -648 -188 -683 2 -6 36 54 75 133 39 79 99 186
133 238 169 259 335 333 335 150 0 -32 4 -59 10 -59 5 0 51 16 101 36 96 37
127 40 132 14 2 -11 -28 -28 -107 -59 -60 -23 -118 -49 -130 -58 -12 -8 -34
-40 -50 -71 -45 -88 -113 -175 -166 -210 -58 -38 -79 -40 -101 -7 -13 20 -14
30 -4 60 15 46 106 144 186 201 70 50 70 50 78 125 11 94 -18 101 -104 22
-134 -120 -290 -405 -390 -713 -39 -118 -51 -145 -66 -145 -17 0 -19 8 -17 75
3 130 72 497 127 673 l15 48 -47 -39 c-71 -59 -162 -118 -217 -142 -53 -23
-96 -23 -151 0 -30 13 -34 11 -80 -22 -76 -55 -132 -80 -181 -80 -89 0 -129
58 -120 177 6 90 37 171 95 248 75 98 143 132 175 86 37 -53 -38 -169 -180
-278 -42 -32 -43 -34 -43 -90 0 -76 15 -96 72 -96 77 0 228 107 228 162 0 68
95 206 160 233 37 15 77 6 85 -19 11 -34 -22 -88 -105 -175 -90 -93 -96 -116
-35 -116 50 0 115 33 225 116 144 109 144 109 184 220 51 139 81 186 100 155z
m-828 -1106 c15 -24 15 -29 -1 -73 -30 -76 -111 -145 -209 -176 -15 -5 -18
-13 -13 -47 10 -75 44 -87 132 -45 104 49 317 239 329 293 8 35 30 58 46 48
15 -9 13 -27 -15 -108 -44 -132 -68 -318 -43 -333 20 -13 122 134 143 206 15
54 39 91 65 105 44 23 240 59 252 47 22 -22 -2 -39 -83 -56 -164 -34 -155 -30
-179 -94 -67 -180 -191 -315 -238 -259 -26 31 -24 159 5 287 5 22 0 20 -43
-21 -121 -114 -245 -189 -315 -189 -106 0 -140 130 -69 269 71 142 191 215
236 146z"/>
<path d="M2580 3048 c-38 -40 -71 -111 -57 -124 12 -12 48 19 92 80 25 35 45
69 45 75 0 25 -42 9 -80 -31z"/>
<path d="M1654 2964 c-19 -19 -34 -43 -34 -52 0 -9 -7 -26 -15 -36 -17 -22
-20 -49 -5 -44 18 6 120 133 120 151 0 28 -30 20 -66 -19z"/>
<path d="M2755 2655 c3 -22 16 -49 27 -60 l20 -20 -5 39 c-4 22 -16 49 -28 60
l-21 21 7 -40z"/>
<path d="M1045 2574 c-114 -76 -190 -157 -178 -191 16 -44 139 43 207 146 26
39 46 76 44 81 -2 6 -35 -11 -73 -36z"/>
<path d="M2496 1968 c-90 -73 -177 -169 -223 -246 -86 -146 131 32 269 219 69
94 72 99 56 99 -7 0 -53 -33 -102 -72z"/>
<path d="M3078 3023 c-48 -49 -95 -129 -84 -140 16 -16 146 134 146 169 0 28
-12 22 -62 -29z"/>
<path d="M3386 2940 c-69 -73 -95 -151 -30 -89 67 63 114 139 85 139 -4 0 -29
-22 -55 -50z"/>
<path d="M4000 2662 c-62 -62 -86 -102 -62 -102 29 0 154 151 138 167 -3 3
-37 -26 -76 -65z"/>
<path d="M2970 2073 c-42 -15 -127 -126 -118 -154 5 -14 111 64 132 95 16 26
22 67 9 65 -5 0 -15 -3 -23 -6z"/>
</g>
</svg>
